<?xml version="1.0" encoding="UTF-8"?><!DOCTYPE svg PUBLIC "-//W3C//DTD SVG 1.1//EN" "http://www.w3.org/Graphics/SVG/1.1/DTD/svg11.dtd"><svg xmlns="http://www.w3.org/2000/svg" xmlns:xlink="http://www.w3.org/1999/xlink"><defs/><symbol id="3m" viewBox="0 0 24 24">
    <path fill="#ffffff" d="M18.903 5.954L17.17 13.03l-1.739-7.076h-5.099v2.613C9.72 6.28 7.56 5.706 5.558 5.674C3.12 5.641.563 6.701.469 9.936h3.373c0-.977.747-1.536 1.588-1.523c1.032-.008 1.508.434 1.533 1.124c-.036.597-.387 1.014-1.525 1.014H4.303V12.9h1.03c.584 0 1.399.319 1.431 1.155c.04.995-.652 1.435-1.501 1.443c-1.517-.053-1.763-1.225-1.763-2.23H0c.015.677-.151 5.091 5.337 5.059c2.629.025 4.464-1.085 5.003-2.613v2.342h3.455v-7.632l1.867 7.634h3.018l1.875-7.626v7.634H24V5.954zm-8.561 7.06c-.429-.893-1.034-1.284-1.376-1.407c.714-.319 1.09-.751 1.376-1.614z"/>
</symbol><symbol id="adobe" viewBox="0 0 24 24">
    <path fill="#ffffff" d="m13.966 22.624l-1.69-4.281H8.122l3.892-9.144l5.662 13.425zM8.884 1.376H0v21.248zm15.116 0h-8.884L24 22.624Z"/>
</symbol><symbol id="android" viewBox="0 0 24 24">
    <path d="M15 9a1 1 0 0 1-1-1a1 1 0 0 1 1-1a1 1 0 0 1 1 1a1 1 0 0 1-1 1M9 9a1 1 0 0 1-1-1a1 1 0 0 1 1-1a1 1 0 0 1 1 1a1 1 0 0 1-1 1m7.12-4.63l2.1-2.1l-.82-.83l-2.31 2.31C14.16 3.28 13.11 3 12 3c-1.12 0-2.16.28-3.09.75L6.6 1.44l-.82.83l2.1 2.1C6.14 5.64 5 7.68 5 10v1h14v-1c0-2.32-1.14-4.36-2.88-5.63M5 16c0 3.86 3.13 7 7 7a7 7 0 0 0 7-7v-4H5v4z" fill="#ffffff"/>
</symbol><symbol id="apple" viewBox="0 0 24 24">
    <path fill="#ffffff" d="M18.71 19.5c-.83 1.24-1.71 2.45-3.05 2.47c-1.34.03-1.77-.79-3.29-.79c-1.53 0-2 .77-3.27.82c-1.31.05-2.3-1.32-3.14-2.53C4.25 17 2.94 12.45 4.7 9.39c.87-1.52 2.43-2.48 4.12-2.51c1.28-.02 2.5.87 3.29.87c.78 0 2.26-1.07 3.81-.91c.65.03 2.47.26 3.64 1.98c-.09.06-2.17 1.28-2.15 3.81c.03 3.02 2.65 4.03 2.68 4.04c-.03.07-.42 1.44-1.38 2.83M13 3.5c.73-.83 1.94-1.46 2.94-1.5c.13 1.17-.34 2.35-1.04 3.19c-.69.85-1.83 1.51-2.95 1.42c-.15-1.15.41-2.35 1.05-3.11"/>
</symbol><symbol id="arch" viewBox="0 0 24 24">
    <path fill="#ffffff" d="M11.39.605C10.376 3.092 9.764 4.72 8.635 7.132c.693.734 1.543 1.589 2.923 2.554c-1.484-.61-2.496-1.224-3.252-1.86C6.86 10.842 4.596 15.138 0 23.395c3.612-2.085 6.412-3.37 9.021-3.862a6.6 6.6 0 0 1-.171-1.547l.003-.115c.058-2.315 1.261-4.095 2.687-3.973c1.426.12 2.534 2.096 2.478 4.409a6.5 6.5 0 0 1-.146 1.243c2.58.505 5.352 1.787 8.914 3.844c-.702-1.293-1.33-2.459-1.929-3.57c-.943-.73-1.926-1.682-3.933-2.713c1.38.359 2.367.772 3.137 1.234c-6.09-11.334-6.582-12.84-8.67-17.74zM22.898 21.36v-.623h-.234v-.084h.562v.084h-.234v.623h.331v-.707h.142l.167.5l.034.107l.038-.114l.17-.493H24v.707h-.091v-.593l-.206.593h-.084l-.205-.602v.602h-.091"/>
</symbol><symbol id="aws" viewBox="0 0 24 24">
    <path fill="#ffffff" d="M6.763 10.036q.002.446.088.71c.064.176.144.368.256.576c.04.063.056.127.056.183q.002.12-.152.24l-.503.335a.4.4 0 0 1-.208.072q-.12-.002-.239-.112a2.5 2.5 0 0 1-.287-.375a6 6 0 0 1-.248-.471q-.934 1.101-2.347 1.101c-.67 0-1.205-.191-1.596-.574q-.588-.575-.59-1.533c0-.678.239-1.23.726-1.644c.487-.415 1.133-.623 1.955-.623c.272 0 .551.024.846.064c.296.04.6.104.918.176v-.583q-.001-.909-.375-1.277c-.255-.248-.686-.367-1.3-.367c-.28 0-.568.031-.863.103q-.443.106-.862.272a2 2 0 0 1-.28.104a.5.5 0 0 1-.127.023q-.168.002-.168-.247v-.391c0-.128.016-.224.056-.28a.6.6 0 0 1 .224-.167a4.6 4.6 0 0 1 1.005-.36a4.8 4.8 0 0 1 1.246-.151c.95 0 1.644.216 2.091.647q.66.645.662 1.963v2.586zm-3.24 1.214c.263 0 .534-.048.822-.144a1.8 1.8 0 0 0 .758-.51a1.3 1.3 0 0 0 .272-.512c.047-.191.08-.423.08-.694v-.335a7 7 0 0 0-.735-.136a6 6 0 0 0-.75-.048c-.535 0-.926.104-1.19.32c-.263.215-.39.518-.39.917c0 .375.095.655.295.846c.191.2.47.296.838.296m6.41.862c-.144 0-.24-.024-.304-.08c-.064-.048-.12-.16-.168-.311L7.586 5.55a1.4 1.4 0 0 1-.072-.32c0-.128.064-.2.191-.2h.783q.227-.001.31.08c.065.048.113.16.16.312l1.342 5.284l1.245-5.284q.058-.24.151-.312a.55.55 0 0 1 .32-.08h.638c.152 0 .256.025.32.08c.063.048.12.16.151.312l1.261 5.348l1.381-5.348q.074-.24.16-.312a.52.52 0 0 1 .311-.08h.743c.127 0 .2.065.2.2c0 .04-.009.08-.017.128a1 1 0 0 1-.056.2l-1.923 6.17q-.072.24-.168.311a.5.5 0 0 1-.303.08h-.687c-.151 0-.255-.024-.32-.08c-.063-.056-.119-.16-.15-.32l-1.238-5.148l-1.23 5.14c-.04.16-.087.264-.15.32c-.065.056-.177.08-.32.08zm10.256.215c-.415 0-.83-.048-1.229-.143c-.399-.096-.71-.2-.918-.32c-.128-.071-.215-.151-.247-.223a.6.6 0 0 1-.048-.224v-.407c0-.167.064-.247.183-.247q.072 0 .144.024c.048.016.12.048.2.08q.408.181.878.279c.319.064.63.096.95.096c.502 0 .894-.088 1.165-.264a.86.86 0 0 0 .415-.758a.78.78 0 0 0-.215-.559c-.144-.151-.416-.287-.807-.415l-1.157-.36c-.583-.183-1.014-.454-1.277-.813a1.9 1.9 0 0 1-.4-1.158q0-.502.216-.886c.144-.255.335-.479.575-.654c.24-.184.51-.32.83-.415c.32-.096.655-.136 1.006-.136c.175 0 .359.008.535.032c.183.024.35.056.518.088q.24.058.455.127q.216.072.336.144a.7.7 0 0 1 .24.2a.43.43 0 0 1 .071.263v.375q-.002.254-.184.256a.8.8 0 0 1-.303-.096a3.65 3.65 0 0 0-1.532-.311c-.455 0-.815.071-1.062.223s-.375.383-.375.71c0 .224.08.416.24.567c.159.152.454.304.877.44l1.134.358c.574.184.99.44 1.237.767s.367.702.367 1.117c0 .343-.072.655-.207.926a2.2 2.2 0 0 1-.583.703c-.248.2-.543.343-.886.447c-.36.111-.734.167-1.142.167m1.509 3.88c-2.626 1.94-6.442 2.969-9.722 2.969c-4.598 0-8.74-1.7-11.87-4.526c-.247-.223-.024-.527.272-.351c3.384 1.963 7.559 3.153 11.877 3.153c2.914 0 6.114-.607 9.06-1.852c.439-.2.814.287.383.607m1.094-1.246c-.336-.43-2.22-.207-3.074-.103c-.255.032-.295-.192-.063-.36c1.5-1.053 3.967-.75 4.254-.399c.287.36-.08 2.826-1.485 4.007c-.215.184-.423.088-.327-.151c.32-.79 1.03-2.57.695-2.994"/>
</symbol><symbol id="blaise" viewBox="0 0 24 24">
    <path fill="#ffffff" fill-rule="evenodd" d="M3 3.001v7.156l2.536 2.557V5.56l7.07.023l-2.535-2.558zm12.862 5.724v6.46l-2.536-2.557v-6.46zM8.79 15.858h6.404l-2.535-2.559H6.256zm10.675 2.931v-6.428L16.93 9.804v7.155l-7.07-.024l2.535 2.559l6.393.021l1.349 1.36L21 21l-.164-.83z" clip-rule="evenodd"/>
</symbol><symbol id="branch" viewBox="0 0 24 24">
    <path fill="#ffffff" d="M13 14c-3.36 0-4.46 1.35-4.82 2.24C9.25 16.7 10 17.76 10 19a3 3 0 0 1-3 3a3 3 0 0 1-3-3c0-1.31.83-2.42 2-2.83V7.83A2.99 2.99 0 0 1 4 5a3 3 0 0 1 3-3a3 3 0 0 1 3 3c0 1.31-.83 2.42-2 2.83v5.29c.88-.65 2.16-1.12 4-1.12c2.67 0 3.56-1.34 3.85-2.23A3.01 3.01 0 0 1 14 7a3 3 0 0 1 3-3a3 3 0 0 1 3 3c0 1.34-.88 2.5-2.09 2.86C17.65 11.29 16.68 14 13 14m-6 4a1 1 0 0 0-1 1a1 1 0 0 0 1 1a1 1 0 0 0 1-1a1 1 0 0 0-1-1M7 4a1 1 0 0 0-1 1a1 1 0 0 0 1 1a1 1 0 0 0 1-1a1 1 0 0 0-1-1m10 2a1 1 0 0 0-1 1a1 1 0 0 0 1 1a1 1 0 0 0 1-1a1 1 0 0 0-1-1"/>
</symbol><symbol id="burger-king" viewBox="0 0 24 24">
    <path fill="#ffffff" d="M15.39 12.614c-.72 0-1.11.538-1.11 1.215v1.508c0 .125-.043.182-.12.182c-.056 0-.098-.035-.147-.133l-.971-1.885c-.37-.72-.755-.887-1.196-.887c-.734 0-1.14.552-1.14 1.243v4.314c0 .678.392 1.215 1.112 1.215s1.112-.537 1.112-1.215v-1.507c0-.126.042-.182.119-.182c.055 0 .097.035.146.133l.972 1.885c.37.719.769.886 1.195.886c.735 0 1.14-.551 1.14-1.242v-4.315c0-.677-.391-1.215-1.111-1.215zm-4.02-.405c.364 0 .68-.286.68-.642c0-.238-.099-.412-.224-.572c-.203-.266-.385-.496-.476-.74c-.02-.056-.007-.105.056-.154c.217-.167.469-.537.469-1.124c0-.886-.734-1.389-1.622-1.389h-.79c-.553 0-.819.321-.819.754v3.114c0 .419.245.754.692.754c.448 0 .693-.335.693-.754v-.74c0-.09.042-.133.111-.133c.084 0 .112.049.126.133c.063.356.23.837.42 1.082c.237.314.46.411.685.411zm-1.146-2.666h-.098c-.119 0-.175-.07-.175-.161v-.474c0-.09.056-.16.175-.16h.098c.294 0 .385.208.385.39c0 .174-.091.405-.385.405m-3.761 2.666c1.132 0 1.734-.677 1.734-1.528V8.328c0-.419-.245-.754-.692-.754c-.448 0-.693.335-.693.754v2.276c0 .167-.097.363-.35.363c-.251 0-.335-.196-.335-.363V8.328c0-.419-.252-.754-.7-.754s-.691.335-.691.754v2.353c0 .852.594 1.528 1.727 1.528m12.011-.034c.392 0 .7-.23.7-.65c0-.412-.308-.642-.7-.642h-.63c-.118 0-.174-.07-.174-.16v-.133c0-.091.056-.161.175-.161h.482c.336 0 .602-.202.602-.559c0-.355-.266-.558-.602-.558h-.482c-.12 0-.175-.07-.175-.16V9.04c0-.091.056-.161.175-.161h.629c.392 0 .7-.23.7-.65c0-.411-.308-.642-.7-.642h-1.321c-.553 0-.818.321-.818.754v3.079c0 .432.265.754.818.754h1.321zm2.642 3.127h-.342c-.615 0-1.09.286-1.09.914c0 .573.517.845.901.845c.189 0 .322.056.322.202c0 .182-.224.3-.462.3c-.79 0-1.328-.537-1.328-1.535c0-1.11.734-1.515 1.3-1.515c.692 0 .804.349 1.287.349a.927.927 0 0 0 .936-.915a.95.95 0 0 0-.398-.788c-.427-.315-1.07-.545-1.979-.545c-1.629 0-3.216 1.026-3.216 3.414c0 2.282 1.587 3.35 3.153 3.35c1.643 0 2.685-1.012 2.685-2.492c0-.935-.587-1.584-1.769-1.584m-12.43-2.688c-.783 0-1.21.587-1.21 1.32v4.132c0 .734.427 1.32 1.21 1.32s1.21-.586 1.21-1.32v-4.132c0-.733-.427-1.32-1.21-1.32m11.494-.405c.447 0 .692-.335.692-.754v-.74c0-.09.042-.132.112-.132c.084 0 .111.049.125.133c.063.355.231.837.42 1.082c.238.314.461.412.685.412c.363 0 .678-.286.678-.643c0-.237-.098-.412-.224-.572c-.237-.3-.384-.496-.475-.74c-.02-.056-.007-.105.056-.153c.217-.168.469-.538.469-1.124c0-.887-.735-1.39-1.623-1.39h-.79c-.552 0-.817.321-.817.754v3.114c0 .419.244.753.692.753m.615-3.301c0-.09.056-.161.175-.161h.098c.293 0 .384.21.384.391c0 .175-.09.405-.384.405h-.098c-.12 0-.175-.07-.175-.16zm-18.87 3.267h.986c.93 0 1.496-.622 1.496-1.397c0-.621-.37-.907-.454-.977c-.035-.028-.07-.056-.07-.084c0-.035.021-.048.056-.09c.133-.154.266-.398.266-.754c0-.838-.567-1.285-1.448-1.285h-.832c-.552 0-.817.321-.817.754v3.079c0 .433.265.754.817.754m.413-3.386c0-.09.056-.16.175-.16h.09c.301 0 .392.209.392.39c0 .168-.09.405-.391.405h-.091c-.12 0-.175-.07-.175-.16zm0 1.634c0-.091.056-.161.175-.161h.126c.335 0 .433.223.433.426c0 .181-.098.44-.433.44h-.126c-.12 0-.175-.07-.175-.161zm11.878 1.794c1.098 0 1.79-.699 1.79-1.718c0-.649-.391-1.096-1.174-1.096h-.224c-.413 0-.734.196-.734.636c0 .39.342.58.601.58c.133 0 .217.041.217.139c0 .125-.147.21-.315.21c-.524 0-.88-.37-.88-1.062c0-.768.489-1.047.866-1.047c.462 0 .539.238.86.238c.37 0 .623-.308.623-.629a.67.67 0 0 0-.266-.544c-.294-.217-.706-.377-1.321-.377c-1.084 0-2.14.712-2.14 2.36c0 1.576 1.056 2.31 2.097 2.31m-8.718 3.762a.35.35 0 0 1-.07-.188c0-.077.042-.133.126-.21c.196-.181.678-.635.944-1.047c.202-.314.286-.6.286-.837c0-.607-.552-1.082-1.153-1.082c-.385 0-.748.216-.993.614c-.329.53-.72 1.145-.972 1.39c-.063.062-.098.076-.146.076c-.084 0-.12-.056-.12-.146v-.699c0-.684-.405-1.235-1.139-1.235c-.74 0-1.14.551-1.14 1.235v4.3c0 .685.399 1.237 1.14 1.237c.734 0 1.14-.552 1.14-1.236v-.991c0-.084.035-.147.119-.147c.111 0 .14.112.167.168c.161.384.63 1.2 1.063 1.682c.294.32.657.524 1.042.524c.65 0 1.196-.566 1.196-1.173c0-.377-.161-.657-.469-.991c-.392-.427-.853-.986-1.021-1.244m15.751 6.702C19.432 23.707 16.313 24 12 24s-7.432-.293-9.25-1.32c-1.09-.614-1.642-1.451-1.642-2.052c0-.342.181-.537.587-.537h20.61c.406 0 .587.195.587.537c0 .6-.552 1.438-1.643 2.053m1.056-15.917H1.695c-.406 0-.587-.209-.587-.586C1.108 3.944 4.47 0 12 0c7.46 0 10.892 3.944 10.892 6.178c0 .377-.181.586-.587.586"/>
</symbol><symbol id="burger" viewBox="0 0 24 24">
    <path fill="none" stroke="#ffffff" stroke-linecap="round" stroke-linejoin="round" stroke-width="2" d="M3 6h18M3 12h18M3 18h18"/>
</symbol><symbol id="check" viewBox="0 0 24 24">
    <path fill="#ffffff" d="m9.55 15.15l8.475-8.475q.3-.3.7-.3t.7.3t.3.713t-.3.712l-9.175 9.2q-.3.3-.7.3t-.7-.3L4.55 13q-.3-.3-.288-.712t.313-.713t.713-.3t.712.3z"/>
</symbol><symbol id="chevron-left" viewBox="0 0 24 24">
    <path fill="#ffffff" d="m10.8 12l3.9 3.9q.275.275.275.7t-.275.7t-.7.275t-.7-.275l-4.6-4.6q-.15-.15-.212-.325T8.425 12t.063-.375t.212-.325l4.6-4.6q.275-.275.7-.275t.7.275t.275.7t-.275.7z"/>
</symbol><symbol id="chevron-right" viewBox="0 0 24 24">
    <path fill="#ffffff" d="M12.6 12L8.7 8.1q-.275-.275-.275-.7t.275-.7t.7-.275t.7.275l4.6 4.6q.15.15.213.325t.062.375t-.062.375t-.213.325l-4.6 4.6q-.275.275-.7.275t-.7-.275t-.275-.7t.275-.7z"/>
</symbol><symbol id="chrome" viewBox="0 0 128 128">
    <circle cx="63.624" cy="64.474" r="22.634" fill="#ffffff"/>
    <path fill="#ffffff" d="M64 37h54.186c-9.944-20-30.64-33.633-54.562-33.633c-19.367 0-36.619 9.173-47.764 23.271l21.123 35.748C38.015 48.48 48 37.07 64 37m56.126 4H78.294c7.403 6 12.299 13.884 12.299 23.369c0 4.663-1.183 8.631-3.268 13.631h.015l-27.757 47.511c1.335.087 2.682-.022 4.04-.022c33.609 0 60.855-27.746 60.855-61.355c.001-8-1.546-15.134-4.352-23.134M63.624 91.445c-11.672 0-21.611-7.414-25.368-17.789L13.07 30.585C6.565 40.271 2.767 51.93 2.767 64.474c0 30.632 22.634 55.972 52.089 60.224l20.996-36.179a26.85 26.85 0 0 1-12.228 2.926"/>
</symbol><symbol id="cli" viewBox="0 0 24 24">
    <path fill="#ffffff" d="M4.616 19q-.691 0-1.153-.462T3 17.384V6.616q0-.691.463-1.153T4.615 5h14.77q.69 0 1.152.463T21 6.616v10.769q0 .69-.463 1.153T19.385 19zm0-1h14.769q.23 0 .423-.192t.192-.424V8H4v9.385q0 .23.192.423t.423.192m4.772-5L7.14 10.754q-.146-.146-.153-.354t.16-.354q.145-.14.353-.133t.354.153l2.369 2.369q.242.242.242.565t-.242.566l-2.389 2.388q-.14.14-.34.134t-.348-.153q-.14-.14-.14-.335t.14-.334zM13 16.5q-.213 0-.357-.143T12.5 16t.143-.357T13 15.5h4q.214 0 .357.143T17.5 16t-.143.357T17 16.5z"/>
</symbol><symbol id="codeberg" viewBox="0 0 24 24">
    <path fill="#ffffff" d="M11.999.747A11.974 11.974 0 0 0 0 12.75c0 2.254.635 4.465 1.833 6.376L11.837 6.19c.072-.092.251-.092.323 0l4.178 5.402h-2.992l.065.239h3.113l.882 1.138h-3.674l.103.374h3.86l.777 1.003h-4.358l.135.483h4.593l.695.894h-5.038l.165.589h5.326l.609.785h-5.717l.182.65h6.038l.562.727h-6.397l.183.65h6.717A12 12 0 0 0 24 12.75A11.977 11.977 0 0 0 11.999.747m3.654 19.104l.182.65h5.326c.173-.204.353-.433.513-.65zm.385 1.377l.18.65h3.563c.233-.198.485-.428.712-.65zm.383 1.377l.182.648h1.203c.356-.204.685-.412 1.042-.648z"/>
</symbol><symbol id="copy" viewBox="0 0 24 24">
    <path fill="#ffffff" d="M16 1H4c-1.1 0-2 .9-2 2v14h2V3h12zm3 4H8c-1.1 0-2 .9-2 2v14c0 1.1.9 2 2 2h11c1.1 0 2-.9 2-2V7c0-1.1-.9-2-2-2m0 16H8V7h11z"/>
</symbol><symbol id="dassault" viewBox="0 0 24 24">
    <path fill="#ffffff" d="M21.185 8.025c1.064.192 1.933.34 2.132.79c.223.51-.936.541-1.52.552c-2.8.054-4.487.11-4.572 1.061c-.11 1.224 1.196 2.458 2.486 4.186c1.178 1.577 2.518 3.135 2.133 4.586c-.482 1.809-2.7 2.192-4.81 2.192c-2.022 0-3.939-.323-4.744-.482c-1.002-.2-.852-.694-.585-.853c.298-.178 2.002-.182 3.187-.252c.975-.058 3.805-.056 4.246-.781c.54-.89-.783-2.408-2-4c-1.519-1.984-3.186-4.034-2.303-5.533c1.14-1.936 4.484-1.803 6.35-1.466m-13.69 2.95c1.772-.104 3.926.206 5.134 1.13a2.17 2.17 0 0 1 .78 2.278c-.698 2.752-3.304 6.083-9.093 8.643c-1.841.813-3.29 1.125-3.593.906c-.326-.234.624-2.052.909-2.654c.925-1.952 2.079-3.853 3.205-5.595c.414-.64 1.055-1.752 1.634-1.662c.519.08-.09 1.26-.488 2.01c-.672 1.26-2.523 4.76-1.912 4.97c1.35.462 7.68-4.354 6.746-7.036c-.432-1.245-3.18-1.363-4.912-1.363c-.787 0-2.508.186-2.603-.417c-.102-.556 2.613-1.116 4.192-1.21M11.867.013c2.068-.098 4.514.342 4.97 1.802c.747 2.39-3.04 5.877-6.338 7.587c-.809.42-1.3.536-1.504.507c-.195-.027-.225-.22-.162-.355c.118-.252.65-.764 1.361-1.322c3.715-2.9 4.923-5.028 4.221-5.89c-.45-.552-2.332-.937-4.287-.937c-.53 0-1.925.123-2.068-.367C7.942.634 9.814.108 11.866.012"/>
</symbol><symbol id="dc" viewBox="0 0 24 24">
    <path fill="#ffffff" d="M5.215 8.787h2.154c.601 0 1.088.487 1.088 1.088v4.954c0 .6-.487 1.088-1.088 1.088H6.05V9.475a.16.16 0 0 0-.066-.129zM12 23.099a11.08 11.08 0 0 1-8.659-4.155a.046.046 0 0 1 .036-.074h5.936a.26.26 0 0 0 .153-.05l2.27-1.648a.16.16 0 0 0 .064-.128V7.616a.16.16 0 0 0-.065-.129L9.466 5.84a.26.26 0 0 0-.153-.05H2.886a.046.046 0 0 1-.037-.071A11.09 11.09 0 0 1 12 .9c3.798 0 7.15 1.907 9.151 4.817a.046.046 0 0 1-.038.071h-1.597c-.052 0-.1.03-.123.079l-.353.757l-1.082-.786a.26.26 0 0 0-.153-.05h-2.553a.26.26 0 0 0-.154.05L12.83 7.487a.16.16 0 0 0-.065.129v9.428c0 .05.024.098.065.128l2.27 1.648a.26.26 0 0 0 .153.05h5.371c.038 0 .06.045.036.074A11.08 11.08 0 0 1 12 23.1zM1.602 8.3l1.038.755c.043.03.068.08.068.132v8.73c0 .046-.06.063-.084.025A11.05 11.05 0 0 1 .901 12c0-1.289.22-2.526.624-3.677a.05.05 0 0 1 .077-.024zm13.67.488h3.225v1.776c0 .046.038.084.084.084h2.701a.1.1 0 0 0 .096-.083l.535-3.374a.046.046 0 0 1 .086-.013a11.05 11.05 0 0 1 1.1 4.823a11.05 11.05 0 0 1-1.39 5.382c-.022.04-.084.024-.084-.023v-3.084a.084.084 0 0 0-.084-.084h-2.96a.084.084 0 0 0-.084.084v1.642h-1.301a1.09 1.09 0 0 1-1.089-1.088V9.475a.16.16 0 0 0-.065-.129zM12 0C5.373 0 0 5.373 0 12s5.373 12 12 12s12-5.373 12-12S18.627 0 12 0"/>
</symbol><symbol id="debian" viewBox="0 0 24 24">
    <path fill="#ffffff" d="M13.88 12.685c-.4 0 .08.2.601.28c.14-.1.27-.22.39-.33a3 3 0 0 1-.99.05m2.14-.53c.23-.33.4-.69.47-1.06c-.06.27-.2.5-.33.73c-.75.47-.07-.27 0-.56c-.8 1.01-.11.6-.14.89m.781-2.05c.05-.721-.14-.501-.2-.221c.07.04.13.5.2.22M12.38.31c.2.04.45.07.42.12c.23-.05.28-.1-.43-.12m.43.12l-.15.03l.14-.01V.43m6.633 9.944c.02.64-.2.95-.38 1.5l-.35.181c-.28.54.03.35-.17.78c-.44.39-1.34 1.22-1.62 1.301c-.201 0 .14-.25.19-.34c-.591.4-.481.6-1.371.85l-.03-.06c-2.221 1.04-5.303-1.02-5.253-3.842c-.03.17-.07.13-.12.2a3.55 3.55 0 0 1 2.001-3.501a3.36 3.36 0 0 1 3.732.48a3.34 3.34 0 0 0-2.721-1.3c-1.18.01-2.281.76-2.651 1.57c-.6.38-.67 1.47-.93 1.661c-.361 2.601.66 3.722 2.38 5.042c.27.19.08.21.12.35a4.7 4.7 0 0 1-1.53-1.16c.23.33.47.66.8.91c-.55-.18-1.27-1.3-1.48-1.35c.93 1.66 3.78 2.921 5.261 2.3a6.2 6.2 0 0 1-2.33-.28c-.33-.16-.77-.51-.7-.57a5.802 5.803 0 0 0 5.902-.84c.44-.35.93-.94 1.07-.95c-.2.32.04.16-.12.44c.44-.72-.2-.3.46-1.24l.24.33c-.09-.6.74-1.321.66-2.262c.19-.3.2.3 0 .97c.29-.74.08-.85.15-1.46c.08.2.18.42.23.63c-.18-.7.2-1.2.28-1.6c-.09-.05-.28.3-.32-.53c0-.37.1-.2.14-.28c-.08-.05-.26-.32-.38-.861c.08-.13.22.33.34.34c-.08-.42-.2-.75-.2-1.08c-.34-.68-.12.1-.4-.3c-.34-1.091.3-.25.34-.74c.54.77.84 1.96.981 2.46c-.1-.6-.28-1.2-.49-1.76c.16.07-.26-1.241.21-.37A7.82 7.82 0 0 0 17.702 1.6c.18.17.42.39.33.42c-.75-.45-.62-.48-.73-.67c-.61-.25-.65.02-1.06 0C15.082.73 14.862.8 13.8.4l.05.23c-.77-.25-.9.1-1.73 0c-.05-.04.27-.14.53-.18c-.741.1-.701-.14-1.431.03c.17-.13.36-.21.55-.32c-.6.04-1.44.35-1.18.07C9.6.68 7.847 1.3 6.867 2.22L6.838 2c-.45.54-1.96 1.611-2.08 2.311l-.131.03c-.23.4-.38.85-.57 1.261c-.3.52-.45.2-.4.28c-.6 1.22-.9 2.251-1.16 3.102c.18.27 0 1.65.07 2.76c-.3 5.463 3.84 10.776 8.363 12.006c.67.23 1.65.23 2.49.25c-.99-.28-1.12-.15-2.08-.49c-.7-.32-.85-.7-1.34-1.13l.2.35c-.971-.34-.57-.42-1.361-.67l.21-.27c-.31-.03-.83-.53-.97-.81l-.34.01c-.41-.501-.63-.871-.61-1.161l-.111.2c-.13-.21-1.52-1.901-.8-1.511c-.13-.12-.31-.2-.5-.55l.14-.17c-.35-.44-.64-1.02-.62-1.2c.2.24.32.3.45.33c-.88-2.172-.93-.12-1.601-2.202l.15-.02c-.1-.16-.18-.34-.26-.51l.06-.6c-.63-.74-.18-3.102-.09-4.402c.07-.54.53-1.1.88-1.981l-.21-.04c.4-.71 2.341-2.872 3.241-2.761c.43-.55-.09 0-.18-.14c.96-.991 1.26-.7 1.901-.88c.7-.401-.6.16-.27-.151c1.2-.3.85-.7 2.421-.85c.16.1-.39.14-.52.26c1-.49 3.151-.37 4.562.27c1.63.77 3.461 3.011 3.531 5.132l.08.02c-.04.85.13 1.821-.17 2.711l.2-.42M9.54 13.236l-.05.28c.26.35.47.73.8 1.01c-.24-.47-.42-.66-.75-1.3m.62-.02c-.14-.15-.22-.34-.31-.52c.08.32.26.6.43.88zm10.945-2.382l-.07.15c-.1.76-.34 1.511-.69 2.212c.4-.73.65-1.541.75-2.362M12.45.12c.27-.1.66-.05.95-.12c-.37.03-.74.05-1.1.1zM3.006 5.142c.07.57-.43.8.11.42c.3-.66-.11-.18-.1-.42m-.64 2.661c.12-.39.15-.62.2-.84c-.35.44-.17.53-.2.83"/>
</symbol><symbol id="desktop" viewBox="0 0 24 24">
    <path fill="#ffffff" d="M21 2H3c-1.1 0-2 .9-2 2v12c0 1.1.9 2 2 2h7v2H9c-.55 0-1 .45-1 1s.45 1 1 1h6c.55 0 1-.45 1-1s-.45-1-1-1h-1v-2h7c1.1 0 2-.9 2-2V4c0-1.1-.9-2-2-2m-1 14H4c-.55 0-1-.45-1-1V5c0-.55.45-1 1-1h16c.55 0 1 .45 1 1v10c0 .55-.45 1-1 1"/>
</symbol><symbol id="directory" viewBox="0 0 24 24">
    <path fill="#ffffff" d="M4 20q-.825 0-1.412-.587T2 18V6q0-.825.588-1.412T4 4h6l2 2h8q.825 0 1.413.588T22 8v10q0 .825-.587 1.413T20 20zm0-2h16V8h-8.825l-2-2H4zm0 0V6z"/>
</symbol><symbol id="discord" viewBox="0 0 24 24">
    <path fill="#ffffff" d="M20.317 4.37a19.8 19.8 0 0 0-4.885-1.515a.074.074 0 0 0-.079.037c-.21.375-.444.864-.608 1.25a18.3 18.3 0 0 0-5.487 0a13 13 0 0 0-.617-1.25a.08.08 0 0 0-.079-.037A19.7 19.7 0 0 0 3.677 4.37a.1.1 0 0 0-.032.027C.533 9.046-.32 13.58.099 18.057a.08.08 0 0 0 .031.057a19.9 19.9 0 0 0 5.993 3.03a.08.08 0 0 0 .084-.028a14 14 0 0 0 1.226-1.994a.076.076 0 0 0-.041-.106a13 13 0 0 1-1.872-.892a.077.077 0 0 1-.008-.128a10 10 0 0 0 .372-.292a.07.07 0 0 1 .077-.01c3.928 1.793 8.18 1.793 12.062 0a.07.07 0 0 1 .078.01q.181.149.373.292a.077.077 0 0 1-.006.127a12.3 12.3 0 0 1-1.873.892a.077.077 0 0 0-.041.107c.36.698.772 1.362 1.225 1.993a.08.08 0 0 0 .084.028a19.8 19.8 0 0 0 6.002-3.03a.08.08 0 0 0 .032-.054c.5-5.177-.838-9.674-3.549-13.66a.06.06 0 0 0-.031-.03M8.02 15.33c-1.182 0-2.157-1.085-2.157-2.419c0-1.333.956-2.419 2.157-2.419c1.21 0 2.176 1.096 2.157 2.42c0 1.333-.956 2.418-2.157 2.418m7.975 0c-1.183 0-2.157-1.085-2.157-2.419c0-1.333.955-2.419 2.157-2.419c1.21 0 2.176 1.096 2.157 2.42c0 1.333-.946 2.418-2.157 2.418"/>
</symbol><symbol id="download" viewBox="0 0 24 24">
    <g fill="none" stroke="#ffffff" stroke-linecap="round" stroke-linejoin="round" stroke-width="2">
        <path d="M12 2v8m4-4l-4 4l-4-4"/>
        <rect width="20" height="8" x="2" y="14" rx="2"/>
        <path d="M6 18h.01M10 18h.01"/>
    </g>
</symbol><symbol id="edit" viewBox="0 0 14 14">
    <g fill="none" stroke="#ffffff" stroke-linecap="round" stroke-linejoin="round">
        <path d="m7.5 9l-3 .54L5 6.5L10.73.79a1 1 0 0 1 1.42 0l1.06 1.06a1 1 0 0 1 0 1.42Z"/>
        <path d="M12 9.5v3a1 1 0 0 1-1 1H1.5a1 1 0 0 1-1-1V3a1 1 0 0 1 1-1h3"/>
    </g>
</symbol><symbol id="email" viewBox="0 0 24 24">
    <path fill="#ffffff" d="m15.95 22l-4.25-4.25l1.4-1.4l2.85 2.85l5.65-5.65l1.4 1.4zM12 11l8-5H4zm0 2L4 8v10h5.15l2 2H4q-.825 0-1.412-.587T2 18V6q0-.825.588-1.412T4 4h16q.825 0 1.413.588T22 6v4.35l-2 2V8zm0 0"/>
</symbol><symbol id="epic" viewBox="0 0 24 24">
    <path fill="#ffffff" d="M3.537 0C2.165 0 1.66.506 1.66 1.879V18.44a4 4 0 0 0 .02.433c.031.3.037.59.316.92c.027.033.311.245.311.245c.153.075.258.13.43.2l8.335 3.491c.433.199.614.276.928.27h.002c.314.006.495-.071.928-.27l8.335-3.492c.172-.07.277-.124.43-.2c0 0 .284-.211.311-.243c.28-.33.285-.621.316-.92a4 4 0 0 0 .02-.434V1.879c0-1.373-.506-1.88-1.878-1.88zm13.366 3.11h.68c1.138 0 1.688.553 1.688 1.696v1.88h-1.374v-1.8c0-.369-.17-.54-.523-.54h-.235c-.367 0-.537.17-.537.539v5.81c0 .369.17.54.537.54h.262c.353 0 .523-.171.523-.54V8.619h1.373v2.143c0 1.144-.562 1.71-1.7 1.71h-.694c-1.138 0-1.7-.566-1.7-1.71V4.82c0-1.144.562-1.709 1.7-1.709zm-12.186.08h3.114v1.274H6.117v2.603h1.648v1.275H6.117v2.774h1.74v1.275h-3.14zm3.816 0h2.198c1.138 0 1.7.564 1.7 1.708v2.445c0 1.144-.562 1.71-1.7 1.71h-.799v3.338h-1.4zm4.53 0h1.4v9.201h-1.4zm-3.13 1.235v3.392h.575c.354 0 .523-.171.523-.54V4.965c0-.368-.17-.54-.523-.54zm-3.74 10.147a1.7 1.7 0 0 1 .591.108a1.8 1.8 0 0 1 .49.299l-.452.546a1.3 1.3 0 0 0-.308-.195a.9.9 0 0 0-.363-.068a.7.7 0 0 0-.28.06a.7.7 0 0 0-.224.163a.8.8 0 0 0-.151.243a.8.8 0 0 0-.056.299v.008a.9.9 0 0 0 .056.31a.7.7 0 0 0 .157.245a.7.7 0 0 0 .238.16a.8.8 0 0 0 .303.058a.8.8 0 0 0 .445-.116v-.339h-.548v-.565H7.37v1.255a2 2 0 0 1-.524.307a1.8 1.8 0 0 1-.683.123a1.6 1.6 0 0 1-.602-.107a1.5 1.5 0 0 1-.478-.3a1.4 1.4 0 0 1-.318-.455a1.4 1.4 0 0 1-.115-.58v-.008a1.4 1.4 0 0 1 .113-.57a1.5 1.5 0 0 1 .312-.46a1.4 1.4 0 0 1 .474-.309a1.6 1.6 0 0 1 .598-.111h.045zm11.963.008a2 2 0 0 1 .612.094a1.6 1.6 0 0 1 .507.277l-.386.546a1.6 1.6 0 0 0-.39-.205a1.2 1.2 0 0 0-.388-.07a.35.35 0 0 0-.208.052a.15.15 0 0 0-.07.127v.008a.16.16 0 0 0 .022.084a.2.2 0 0 0 .076.066a1 1 0 0 0 .147.06q.093.03.236.061a3 3 0 0 1 .43.122a1.3 1.3 0 0 1 .328.17a.7.7 0 0 1 .207.24a.74.74 0 0 1 .071.337v.008a.9.9 0 0 1-.081.382a.8.8 0 0 1-.229.285a1 1 0 0 1-.353.18a1.6 1.6 0 0 1-.46.061a2.2 2.2 0 0 1-.71-.116a1.7 1.7 0 0 1-.593-.346l.43-.514q.416.335.9.335a.46.46 0 0 0 .236-.05a.16.16 0 0 0 .082-.142v-.008a.15.15 0 0 0-.02-.077a.2.2 0 0 0-.073-.066a1 1 0 0 0-.143-.062a3 3 0 0 0-.233-.062a5 5 0 0 1-.413-.113a1.3 1.3 0 0 1-.331-.16a.7.7 0 0 1-.222-.243a.73.73 0 0 1-.082-.36v-.008a.9.9 0 0 1 .074-.359a.8.8 0 0 1 .214-.283a1 1 0 0 1 .34-.185a1.4 1.4 0 0 1 .448-.066zm-9.358.025h.742l1.183 2.81h-.825l-.203-.499H8.623l-.198.498h-.81zm2.197.02h.814l.663 1.08l.663-1.08h.814v2.79h-.766v-1.602l-.711 1.091h-.016l-.707-1.083v1.593h-.754zm3.469 0h2.235v.658h-1.473v.422h1.334v.61h-1.334v.442h1.493v.658h-2.255zm-5.3.897l-.315.793h.624zm-1.145 5.19h8.014l-4.09 1.348z"/>
</symbol><symbol id="file" viewBox="0 0 256 256">
    <path fill="#ffffff" d="m213.66 66.34l-40-40A8 8 0 0 0 168 24H88a16 16 0 0 0-16 16v16H56a16 16 0 0 0-16 16v144a16 16 0 0 0 16 16h112a16 16 0 0 0 16-16v-16h16a16 16 0 0 0 16-16V72a8 8 0 0 0-2.34-5.66M168 216H56V72h76.69L168 107.31zm32-32h-16v-80a8 8 0 0 0-2.34-5.66l-40-40A8 8 0 0 0 136 56H88V40h76.69L200 75.31Zm-56-32a8 8 0 0 1-8 8H88a8 8 0 0 1 0-16h48a8 8 0 0 1 8 8m0 32a8 8 0 0 1-8 8H88a8 8 0 0 1 0-16h48a8 8 0 0 1 8 8"/>
</symbol><symbol id="git" viewBox="0 0 24 24">
    <path fill="#ffffff" d="M13.09 23.549a1.54 1.54 0 0 1-2.18 0L.451 13.089a1.54 1.54 0 0 1 0-2.179l7.191-7.19l2.733 2.733a1.85 1.85 0 0 0 .964 2.326v6.66a1.849 1.849 0 1 0 1.54 0V8.957l2.508 2.508a1.85 1.85 0 1 0 1.09-1.09l-2.634-2.634a1.85 1.85 0 0 0-2.378-2.377L8.73 2.63L10.91.451a1.54 1.54 0 0 1 2.179 0l10.459 10.46a1.54 1.54 0 0 1 0 2.179z"/>
</symbol><symbol id="github" viewBox="0 0 24 24">
    <path fill="#ffffff" d="M12.001 2c-5.525 0-10 4.475-10 10a9.99 9.99 0 0 0 6.837 9.488c.5.087.688-.213.688-.476c0-.237-.013-1.024-.013-1.862c-2.512.463-3.162-.612-3.362-1.175c-.113-.288-.6-1.175-1.025-1.413c-.35-.187-.85-.65-.013-.662c.788-.013 1.35.725 1.538 1.025c.9 1.512 2.337 1.087 2.912.825c.088-.65.35-1.087.638-1.337c-2.225-.25-4.55-1.113-4.55-4.938c0-1.088.387-1.987 1.025-2.687c-.1-.25-.45-1.275.1-2.65c0 0 .837-.263 2.75 1.024a9.3 9.3 0 0 1 2.5-.337c.85 0 1.7.112 2.5.337c1.913-1.3 2.75-1.024 2.75-1.024c.55 1.375.2 2.4.1 2.65c.637.7 1.025 1.587 1.025 2.687c0 3.838-2.337 4.688-4.562 4.938c.362.312.675.912.675 1.85c0 1.337-.013 2.412-.013 2.75c0 .262.188.574.688.474A10.02 10.02 0 0 0 22 12c0-5.525-4.475-10-10-10"/>
</symbol><symbol id="godot" viewBox="0 0 24 24">
    <path fill="#ffffff" d="M9.56.683c-1.096.244-2.181.583-3.199 1.095c.023.898.081 1.758.2 2.632c-.396.253-.81.47-1.179.766c-.375.288-.758.564-1.097.902A21 21 0 0 0 2.15 4.836C1.353 5.693.608 6.62 0 7.655c.458.74.936 1.435 1.452 2.094h.014v6.356q.018 0 .035.003l3.896.376a.42.42 0 0 1 .378.39l.12 1.72l3.4.241l.234-1.587a.42.42 0 0 1 .415-.358h4.111c.208 0 .385.152.415.358l.234 1.587l3.4-.242l.12-1.72a.42.42 0 0 1 .377-.389l3.896-.376l.035-.003v-.507h.002V9.75h.014c.516-.66.994-1.353 1.452-2.094c-.608-1.036-1.354-1.961-2.151-2.82c-.74.372-1.457.793-2.135 1.242c-.34-.337-.721-.613-1.096-.901c-.37-.296-.785-.514-1.179-.767c.117-.874.175-1.734.2-2.632c-1.018-.512-2.102-.85-3.199-1.095a23 23 0 0 0-1.187 2.312a8 8 0 0 0-1.246-.099h-.016c-.417.005-.832.03-1.246.1A23 23 0 0 0 9.557.682zM6.476 9.989a2.349 2.349 0 1 1 .001 4.697a2.349 2.349 0 0 1 0-4.697m11.05 0a2.349 2.349 0 1 1-.001 4.697a2.349 2.349 0 0 1 0-4.697m-10.824.93a1.559 1.559 0 1 0 0 3.118a1.559 1.559 0 0 0 0-3.118m10.598 0a1.558 1.558 0 1 0 0 3.116a1.558 1.558 0 0 0 0-3.116m-5.3.453c.417 0 .757.308.757.687v2.162c0 .38-.339.687-.757.687s-.756-.308-.756-.687V12.06c0-.379.339-.687.756-.687M1.46 16.947c.001.377.005.79.005.871c0 3.702 4.695 5.48 10.527 5.5h.014c5.833-.02 10.526-1.798 10.526-5.5c0-.084.005-.495.007-.87l-3.502.338l-.121 1.729a.42.42 0 0 1-.39.39l-4.18.296a.42.42 0 0 1-.416-.358l-.238-1.614h-3.386l-.238 1.614a.42.42 0 0 1-.445.357l-4.151-.296a.42.42 0 0 1-.39-.39l-.12-1.729l-3.504-.337z"/>
</symbol><symbol id="gog" viewBox="0 0 24 24">
    <path fill="#ffffff" d="M7.15 15.24H4.36a.4.4 0 0 0-.4.4v2c0 .21.18.4.4.4h2.8v1.32h-3.5c-.56 0-1.02-.46-1.02-1.03v-3.39c0-.56.46-1.02 1.03-1.02h3.48zm1.01-3.7c0 .58-.47 1.05-1.05 1.05H2.63v-1.35h3.78a.4.4 0 0 0 .4-.4V6.39a.4.4 0 0 0-.4-.4H4.39a.4.4 0 0 0-.41.4v2.02c0 .23.18.4.4.4H6v1.35H3.68c-.58 0-1.05-.46-1.05-1.04V5.68c0-.57.47-1.04 1.05-1.04H7.1c.58 0 1.05.47 1.05 1.04v5.86zm13.2 7.82h-1.32v-4.12h-.93a.4.4 0 0 0-.4.4v3.72h-1.33v-4.12h-.93a.4.4 0 0 0-.4.4v3.72h-1.33v-4.42c0-.56.46-1.02 1.03-1.02h5.61zm.01-7.82c0 .58-.47 1.05-1.05 1.05h-4.48v-1.35h3.78a.4.4 0 0 0 .4-.4V6.39a.4.4 0 0 0-.4-.4h-2.03a.4.4 0 0 0-.4.4v2.02c0 .23.18.4.4.4h1.62v1.35H16.9c-.58 0-1.05-.46-1.05-1.04V5.68c0-.57.47-1.04 1.05-1.04h3.43c.58 0 1.05.47 1.05 1.04v5.86zm-7.65-6.9h-3.44c-.58 0-1.04.47-1.04 1.04v3.44c0 .58.46 1.04 1.04 1.04h3.44c.57 0 1.04-.46 1.04-1.04V5.68c0-.57-.47-1.04-1.04-1.04m-.3 1.75v2.02a.4.4 0 0 1-.4.4h-2.03a.4.4 0 0 1-.4-.4V6.4c0-.22.17-.4.4-.4H13c.23 0 .4.18.4.4zm-.79 7.53H9.24c-.57 0-1.03.46-1.03 1.02v3.39c0 .57.46 1.03 1.03 1.03h3.39c.57 0 1.03-.46 1.03-1.03v-3.39c0-.56-.46-1.02-1.03-1.02m-.3 1.72v2a.4.4 0 0 1-.4.4v-.01H9.94a.4.4 0 0 1-.4-.4v-1.99c0-.22.18-.4.4-.4h2c.22 0 .4.18.4.4zM23.49 1.1a1.74 1.74 0 0 0-1.24-.52H1.75A1.74 1.74 0 0 0 0 2.33v19.34a1.74 1.74 0 0 0 1.75 1.75h20.5A1.74 1.74 0 0 0 24 21.67V2.33c0-.48-.2-.92-.51-1.24m0 20.58a1.23 1.23 0 0 1-1.24 1.24H1.75A1.23 1.23 0 0 1 .5 21.67V2.33a1.23 1.23 0 0 1 1.24-1.24h20.5a1.24 1.24 0 0 1 1.24 1.24v19.34z"/>
</symbol><symbol id="google" viewBox="0 0 24 24">
<path fill="#ffffff" d="M12 2a9.96 9.96 0 0 1 6.29 2.226a1 1 0 0 1 .04 1.52l-1.51 1.362a1 1 0 0 1-1.265.06a6 6 0 1 0 2.103 6.836l.001-.004h-3.66a1 1 0 0 1-.992-.883L13 13v-2a1 1 0 0 1 1-1h6.945a1 1 0 0 1 .994.89q.06.55.061 1.11c0 5.523-4.477 10-10 10S2 17.523 2 12S6.477 2 12 2"/>
</symbol><symbol id="inbox" viewBox="0 0 24 24">
    <path fill="#ffffff" d="M5 21q-.825 0-1.412-.587T3 19V5q0-.825.588-1.412T5 3h14q.825 0 1.413.588T21 5v14q0 .825-.587 1.413T19 21zm8.725-5.55Q14.5 14.9 14.8 14H19V5H5v9h4.2q.3.9 1.075 1.45T12 16t1.725-.55"/>
</symbol><symbol id="ios" viewBox="0 0 24 24">
    <g fill="none">
        <path d="m12.594 23.258l-.012.002l-.071.035l-.02.004l-.014-.004l-.071-.036q-.016-.004-.024.006l-.004.01l-.017.428l.005.02l.01.013l.104.074l.015.004l.012-.004l.104-.074l.012-.016l.004-.017l-.017-.427q-.004-.016-.016-.018m.264-.113l-.014.002l-.184.093l-.01.01l-.003.011l.018.43l.005.012l.008.008l.201.092q.019.005.029-.008l.004-.014l-.034-.614q-.005-.019-.02-.022m-.715.002a.02.02 0 0 0-.027.006l-.006.014l-.034.614q.001.018.017.024l.015-.002l.201-.093l.01-.008l.003-.011l.018-.43l-.003-.012l-.01-.01z"/>
        <path fill="#ffffff" d="M16 3a5 5 0 0 1 5 5v8a5 5 0 0 1-5 5H8a5 5 0 0 1-5-5V8a5 5 0 0 1 5-5zm-.275 6.84q-.557 0-.995.193q-.436.195-.688.54q-.249.345-.246.808q-.003.564.37.897t1.017.49l.554.14q.278.066.47.148q.194.082.293.199a.42.42 0 0 1 .102.288a.5.5 0 0 1-.112.326a.73.73 0 0 1-.315.22q-.201.08-.476.08q-.277 0-.499-.084a.8.8 0 0 1-.35-.256a.8.8 0 0 1-.147-.428h-1.042q.012.55.266.923q.256.37.71.559q.459.19 1.075.19q.621 0 1.061-.187q.442-.19.676-.53q.237-.343.24-.81a1.35 1.35 0 0 0-.118-.565a1.3 1.3 0 0 0-.315-.427a1.9 1.9 0 0 0-.483-.306a3.2 3.2 0 0 0-.61-.198l-.459-.11a3 3 0 0 1-.312-.09a1.3 1.3 0 0 1-.26-.126a.6.6 0 0 1-.176-.177a.4.4 0 0 1-.057-.238q0-.164.094-.293a.63.63 0 0 1 .28-.203q.18-.075.444-.074q.387 0 .614.167t.256.467h1.031a1.43 1.43 0 0 0-.243-.8a1.57 1.57 0 0 0-.661-.54a2.35 2.35 0 0 0-.99-.193m-5.08 0q-.68 0-1.22.308a2.2 2.2 0 0 0-.852.89q-.312.584-.313 1.416q0 .831.313 1.415t.853.893q.54.307 1.219.307q.674 0 1.212-.305a2.2 2.2 0 0 0 .855-.893q.316-.585.316-1.417t-.316-1.416a2.17 2.17 0 0 0-.855-.89a2.4 2.4 0 0 0-1.212-.308M7.48 11.182H6.423V15H7.48zm3.164-.39q.39 0 .68.191q.291.192.45.562q.162.37.162.91q0 .538-.162.91a1.23 1.23 0 0 1-.45.56a1.2 1.2 0 0 1-.68.192q-.39 0-.682-.191a1.25 1.25 0 0 1-.452-.562q-.16-.37-.16-.91q0-.539.16-.91q.16-.37.452-.56q.29-.192.682-.192m-3.69-1.174a.57.57 0 0 0-.405.16a.51.51 0 0 0 0 .756a.57.57 0 0 0 .404.156a.57.57 0 0 0 .403-.157a.506.506 0 0 0 0-.756a.56.56 0 0 0-.403-.159"/>
    </g>
</symbol><symbol id="itchio" viewBox="0 0 24 24">
    <path fill="#ffffff" d="M3.13 1.338C2.08 1.96.02 4.328 0 4.95v1.03c0 1.303 1.22 2.45 2.325 2.45c1.33 0 2.436-1.102 2.436-2.41c0 1.308 1.07 2.41 2.4 2.41c1.328 0 2.362-1.102 2.362-2.41c0 1.308 1.137 2.41 2.466 2.41h.024c1.33 0 2.466-1.102 2.466-2.41c0 1.308 1.034 2.41 2.363 2.41c1.33 0 2.4-1.102 2.4-2.41c0 1.308 1.106 2.41 2.435 2.41C22.78 8.43 24 7.282 24 5.98V4.95c-.02-.62-2.082-2.99-3.13-3.612c-3.253-.114-5.508-.134-8.87-.133c-3.362 0-7.945.053-8.87.133m6.376 6.477a2.7 2.7 0 0 1-.468.602c-.5.49-1.19.795-1.947.795a2.8 2.8 0 0 1-1.95-.795a2.6 2.6 0 0 1-.446-.59a2.8 2.8 0 0 1-.486.59a2.8 2.8 0 0 1-1.95.795a.8.8 0 0 1-.264-.052a40 40 0 0 0-.168 2.95v.005l-.006 1.167c.02 2.334-.23 7.564 1.03 8.85c1.952.454 5.545.662 9.15.663c3.605 0 7.198-.21 9.15-.664c1.26-1.284 1.01-6.514 1.03-8.848l-.006-1.167v-.004a40 40 0 0 0-.168-2.95a.9.9 0 0 1-.263.052a2.8 2.8 0 0 1-1.95-.795a2.7 2.7 0 0 1-.486-.59c-.127.22-.265.412-.447.59a2.8 2.8 0 0 1-1.95.794c-.76 0-1.446-.303-1.948-.793a2.7 2.7 0 0 1-.468-.602a2.7 2.7 0 0 1-.463.602a2.8 2.8 0 0 1-1.95.794h-.16a2.8 2.8 0 0 1-1.95-.793a2.7 2.7 0 0 1-.464-.602zm-2.004 2.59v.002c.795.002 1.5 0 2.373.953A20 20 0 0 1 12 11.253c.72 0 1.438.035 2.125.107c.873-.953 1.578-.95 2.372-.953c.376 0 1.876 0 2.92 2.934l1.123 4.028c.832 2.995-.266 3.068-1.636 3.07c-2.03-.075-3.156-1.55-3.156-3.025c-1.124.184-2.436.276-3.748.277c-1.312 0-2.624-.093-3.748-.277c0 1.475-1.125 2.95-3.156 3.026c-1.37-.004-2.468-.077-1.636-3.072l1.122-4.027c1.045-2.934 2.545-2.934 2.92-2.934zM12 12.714c-.002.002-2.14 1.964-2.523 2.662l1.4-.056v1.22c0 .056.56.033 1.123.007c.562.026 1.124.05 1.124-.008v-1.22l1.4.055C14.138 14.677 12 12.713 12 12.713z"/>
</symbol><symbol id="linux" viewBox="0 0 24 24">
    <path fill="#ffffff" d="M14.62 8.35c-.42.28-1.75 1.04-1.95 1.19c-.39.31-.75.29-1.14-.01c-.2-.16-1.53-.92-1.95-1.19c-.48-.31-.45-.7.08-.92c1.64-.69 3.28-.64 4.91.03c.49.21.51.6.05.9m7.22 7.28c-.93-2.09-2.2-3.99-3.84-5.66a4.3 4.3 0 0 1-1.06-1.88c-.1-.33-.17-.67-.24-1.01c-.2-.88-.29-1.78-.7-2.61c-.73-1.58-2-2.4-3.84-2.47c-1.81.05-3.16.81-3.95 2.4c-.21.43-.36.88-.46 1.34c-.17.76-.32 1.55-.5 2.32c-.15.65-.45 1.21-.96 1.71c-1.61 1.57-2.9 3.37-3.88 5.35c-.14.29-.28.58-.37.88c-.19.66.29 1.12.99.96c.44-.09.88-.18 1.3-.31c.41-.15.57-.05.67.35c.65 2.15 2.07 3.66 4.24 4.5c4.12 1.56 8.93-.66 9.97-4.58c.07-.27.17-.37.47-.27c.46.14.93.24 1.4.35c.49.09.85-.16.92-.64c.03-.26-.06-.49-.16-.73"/>
</symbol><symbol id="macos" viewBox="0 0 24 24">
    <path fill="#ffffff" d="M18.71 19.5c-.83 1.24-1.71 2.45-3.05 2.47c-1.34.03-1.77-.79-3.29-.79c-1.53 0-2 .77-3.27.82c-1.31.05-2.3-1.32-3.14-2.53C4.25 17 2.94 12.45 4.7 9.39c.87-1.52 2.43-2.48 4.12-2.51c1.28-.02 2.5.87 3.29.87c.78 0 2.26-1.07 3.81-.91c.65.03 2.47.26 3.64 1.98c-.09.06-2.17 1.28-2.15 3.81c.03 3.02 2.65 4.03 2.68 4.04c-.03.07-.42 1.44-1.38 2.83M13 3.5c.73-.83 1.94-1.46 2.94-1.5c.13 1.17-.34 2.35-1.04 3.19c-.69.85-1.83 1.51-2.95 1.42c-.15-1.15.41-2.35 1.05-3.11"/>
</symbol><symbol id="mc-donalds" viewBox="0 0 24 24">
    <path fill="#ffffff" d="M17.243 3.006c2.066 0 3.742 8.714 3.742 19.478H24c0-11.588-3.042-20.968-6.766-20.968c-2.127 0-4.007 2.81-5.248 7.227c-1.241-4.416-3.121-7.227-5.231-7.227C3.031 1.516 0 10.888 0 22.476h3.014c0-10.763 1.658-19.47 3.724-19.47s3.741 8.05 3.741 17.98h2.997c0-9.93 1.684-17.98 3.75-17.98Z"/>
</symbol><symbol id="mobile" viewBox="0 0 24 24">
    <g fill="none">
        <path d="m12.593 23.258l-.011.002l-.071.035l-.02.004l-.014-.004l-.071-.035q-.016-.005-.024.005l-.004.01l-.017.428l.005.02l.01.013l.104.074l.015.004l.012-.004l.104-.074l.012-.016l.004-.017l-.017-.427q-.004-.016-.017-.018m.265-.113l-.013.002l-.185.093l-.01.01l-.003.011l.018.43l.005.012l.008.007l.201.093q.019.005.029-.008l.004-.014l-.034-.614q-.005-.018-.02-.022m-.715.002a.02.02 0 0 0-.027.006l-.006.014l-.034.614q.001.018.017.024l.015-.002l.201-.093l.01-.008l.004-.011l.017-.43l-.003-.012l-.01-.01z"/>
        <path fill="#ffffff" d="M17 2a2 2 0 0 1 1.995 1.85L19 4v16a2 2 0 0 1-1.85 1.995L17 22H7a2 2 0 0 1-1.995-1.85L5 20V4a2 2 0 0 1 1.85-1.995L7 2zm0 2H7v16h10zm-4.5 12a.5.5 0 0 1 .492.41l.008.09v1a.5.5 0 0 1-.41.492L12.5 18h-1a.5.5 0 0 1-.492-.41L11 17.5v-1a.5.5 0 0 1 .41-.492L11.5 16z"/>
    </g>
</symbol><symbol id="nintendo" viewBox="0 0 24 24">
    <path fill="#ffffff" d="M14.176 24h3.674c3.376 0 6.15-2.774 6.15-6.15V6.15C24 2.775 21.226 0 17.85 0H14.1c-.074 0-.15.074-.15.15v23.7c-.001.076.075.15.226.15m4.574-13.199c1.351 0 2.399 1.125 2.399 2.398c0 1.352-1.125 2.4-2.399 2.4c-1.35 0-2.4-1.049-2.4-2.4c-.075-1.349 1.05-2.398 2.4-2.398M11.4 0H6.15C2.775 0 0 2.775 0 6.15v11.7C0 21.226 2.775 24 6.15 24h5.25c.074 0 .15-.074.15-.149V.15c.001-.076-.075-.15-.15-.15M9.676 22.051H6.15a4.194 4.194 0 0 1-4.201-4.201V6.15A4.194 4.194 0 0 1 6.15 1.949H9.6zM3.75 7.199c0 1.275.975 2.25 2.25 2.25s2.25-.975 2.25-2.25c0-1.273-.975-2.25-2.25-2.25s-2.25.977-2.25 2.25"/>
</symbol><symbol id="note" viewBox="0 0 24 24">
    <path fill="#ffffff" d="M3 18v-2h12v2zm0-5v-2h18v2zm0-5V6h18v2z"/>
</symbol><symbol id="placeholder" viewBox="0 0 24 24">
    <path fill="#ffffff" d="M4.4 21q-.475-.1-.888-.513T3 19.6L19.6 3q.525.125.9.513t.525.887zM3 14.7v-2.8L11.9 3h2.8zM3 7V5q0-.825.588-1.413T5 3h2zm14 14l4-4v2q0 .825-.587 1.413T19 21zm-7.7 0L21 9.3v2.8L12.1 21z"/>
</symbol><symbol id="playstation" viewBox="0 0 24 24">
    <path fill="#ffffff" d="M8.984 2.596v17.547l3.915 1.261V6.688c0-.69.304-1.151.794-.991c.636.18.76.814.76 1.505v5.875c2.441 1.193 4.362-.002 4.362-3.152c0-3.237-1.126-4.675-4.438-5.827c-1.307-.448-3.728-1.186-5.39-1.502zm4.656 16.241l6.296-2.275c.715-.258.826-.625.246-.818c-.586-.192-1.637-.139-2.357.123l-4.205 1.5V14.98l.24-.085s1.201-.42 2.913-.615c1.696-.18 3.785.03 5.437.661c1.848.601 2.04 1.472 1.576 2.072c-.465.6-1.622 1.036-1.622 1.036l-8.544 3.107V18.86zM1.807 18.6c-1.9-.545-2.214-1.668-1.352-2.32c.801-.586 2.16-1.052 2.16-1.052l5.615-2.013v2.313L4.205 17c-.705.271-.825.632-.239.826c.586.195 1.637.15 2.343-.12L8.247 17v2.074c-.12.03-.256.044-.39.073c-1.939.331-3.996.196-6.038-.479z"/>
</symbol><symbol id="redhat" viewBox="0 0 24 24">
    <path fill="#ffffff" d="M16.009 13.386c1.577 0 3.86-.326 3.86-2.202a1.8 1.8 0 0 0-.04-.431l-.94-4.08c-.216-.898-.406-1.305-1.982-2.093c-1.223-.625-3.888-1.658-4.676-1.658c-.733 0-.947.946-1.822.946c-.842 0-1.467-.706-2.255-.706c-.757 0-1.25.515-1.63 1.576c0 0-1.06 2.99-1.197 3.424a.8.8 0 0 0-.028.245c0 1.162 4.577 4.974 10.71 4.974m4.101-1.435c.218 1.032.218 1.14.218 1.277c0 1.765-1.984 2.745-4.593 2.745c-5.895.004-11.06-3.451-11.06-5.734a2.3 2.3 0 0 1 .19-.925C2.746 9.415 0 9.794 0 12.217c0 3.969 9.405 8.861 16.851 8.861c5.71 0 7.149-2.582 7.149-4.62c0-1.605-1.387-3.425-3.887-4.512"/>
</symbol><symbol id="search" viewBox="0 0 24 24">
<path fill="#ffffff" d="M9.5 16q-2.725 0-4.612-1.888T3 9.5t1.888-4.612T9.5 3t4.613 1.888T16 9.5q0 1.1-.35 2.075T14.7 13.3l5.6 5.6q.275.275.275.7t-.275.7t-.7.275t-.7-.275l-5.6-5.6q-.75.6-1.725.95T9.5 16m0-2q1.875 0 3.188-1.312T14 9.5t-1.312-3.187T9.5 5T6.313 6.313T5 9.5t1.313 3.188T9.5 14"/>
</symbol><symbol id="steam" viewBox="0 0 24 24">
    <path fill="#ffffff" d="M11.979 0C5.678 0 .511 4.86.022 11.037l6.432 2.658a3.4 3.4 0 0 1 1.912-.59q.094.001.188.006l2.861-4.142V8.91a4.53 4.53 0 0 1 4.524-4.524c2.494 0 4.524 2.031 4.524 4.527s-2.03 4.525-4.524 4.525h-.105l-4.076 2.911l.004.159a3.39 3.39 0 0 1-3.39 3.396a3.41 3.41 0 0 1-3.331-2.727L.436 15.27C1.862 20.307 6.486 24 11.979 24c6.627 0 11.999-5.373 11.999-12S18.605 0 11.979 0M7.54 18.21l-1.473-.61c.262.543.714.999 1.314 1.25a2.551 2.551 0 0 0 3.337-3.324a2.547 2.547 0 0 0-3.255-1.413l1.523.63a1.878 1.878 0 0 1-1.445 3.467zm11.415-9.303a3.02 3.02 0 0 0-3.015-3.015a3.015 3.015 0 1 0 3.015 3.015m-5.273-.005a2.264 2.264 0 1 1 4.531 0a2.267 2.267 0 0 1-2.266 2.265a2.264 2.264 0 0 1-2.265-2.265"/>
</symbol><symbol id="sync" viewBox="0 0 24 24">
    <path fill="#ffffff" d="M17.9 11q-.175-1.025-.675-1.9T16 7.55V10h-2V4h6v2h-2.725q1.075.95 1.763 2.225T19.925 11zM15 17h5v-2h-5zm-.5 2q-.625 0-1.062-.437T13 17.5v-3q0-.625.438-1.062T14.5 13h6q.625 0 1.063.438T22 14.5v3q0 .625-.437 1.063T20.5 19zM4 20v-2h2.725q-1.275-1.1-2-2.65T4 12q0-2.8 1.7-4.937T10 4.25v2.1q-1.75.625-2.875 2.163T6 12q0 1.35.538 2.488T8 16.45V14h2v6zm8 2v-2h11v2zm3-5v-2z"/>
</symbol><symbol id="tea" viewBox="0 0 24 24">
    <path fill="#ffffff" d="M4 19h16v2H4zM20 8V5h-2v3zm0-5c.6 0 1 .2 1.4.6s.6.9.6 1.4v3c0 .6-.2 1-.6 1.4s-.8.6-1.4.6h-2v3c0 1.1-.4 2-1.2 2.8S15.1 17 14 17H8c-1.1 0-2-.4-2.8-1.2S4 14.1 4 13V3h5v2.4L7.2 6.8c-.1.1-.2.3-.2.4v4.3c0 .3.2.5.5.5h4c.3 0 .5-.2.5-.5V7.2c0-.2-.1-.3-.2-.4L10 5.4V3z"/>
</symbol><symbol id="template" viewBox="0 0 24 24">
    <path fill="#ffffff" d="M3 18.5v-2h2v2zM3 15v-2h2v2zm0-3.5v-2h2v2zM6.5 22v-2h2v2zM9 18q-.825 0-1.412-.587T7 16V4q0-.825.588-1.412T9 2h9q.825 0 1.413.588T20 4v12q0 .825-.587 1.413T18 18zm0-2h9V4H9zm1 6v-2h2v2zm-5 0q-.825 0-1.412-.587T3 20h2zm8.5 0v-2h2q0 .825-.587 1.413T13.5 22M3 8q0-.825.588-1.412T5 6v2zm10.5 2"/>
</symbol><symbol id="theme" viewBox="0 0 24 24">
    <path fill="#ffffff" d="M7.5 2c-1.79 1.15-3 3.18-3 5.5s1.21 4.35 3.03 5.5C4.46 13 2 10.54 2 7.5A5.5 5.5 0 0 1 7.5 2m11.57 1.5l1.43 1.43L4.93 20.5L3.5 19.07zm-6.18 2.43L11.41 5L9.97 6l.42-1.7L9 3.24l1.75-.12l.58-1.65L12 3.1l1.73.03l-1.35 1.13zm-3.3 3.61l-1.16-.73l-1.12.78l.34-1.32l-1.09-.83l1.36-.09l.45-1.29l.51 1.27l1.36.03l-1.05.87zM19 13.5a5.5 5.5 0 0 1-5.5 5.5c-1.22 0-2.35-.4-3.26-1.07l7.69-7.69c.67.91 1.07 2.04 1.07 3.26m-4.4 6.58l2.77-1.15l-.24 3.35zm4.33-2.7l1.15-2.77l2.2 2.54zm1.15-4.96l-1.14-2.78l3.34.24zM9.63 18.93l2.77 1.15l-2.53 2.19z"/>
</symbol><symbol id="twitch" viewBox="0 0 24 24">
    <path fill="#ffffff" d="M11.571 4.714h1.715v5.143H11.57zm4.715 0H18v5.143h-1.714zM6 0L1.714 4.286v15.428h5.143V24l4.286-4.286h3.428L22.286 12V0zm14.571 11.143l-3.428 3.428h-3.429l-3 3v-3H6.857V1.714h13.714Z"/>
</symbol><symbol id="ubuntu" viewBox="0 0 24 24">
    <path fill="#ffffff" d="M17.61.455a3.41 3.41 0 0 0-3.41 3.41a3.41 3.41 0 0 0 3.41 3.41a3.41 3.41 0 0 0 3.41-3.41a3.41 3.41 0 0 0-3.41-3.41M12.92.8C8.923.777 5.137 2.941 3.148 6.451a5 5 0 0 1 .26-.007a4.9 4.9 0 0 1 2.585.737A8.32 8.32 0 0 1 12.688 3.6A4.94 4.94 0 0 1 13.723.834A11 11 0 0 0 12.92.8m9.226 4.994a4.9 4.9 0 0 1-1.918 2.246a8.36 8.36 0 0 1-.273 8.303a4.9 4.9 0 0 1 1.632 2.54a11.16 11.16 0 0 0 .559-13.089M3.41 7.932A3.41 3.41 0 0 0 0 11.342a3.41 3.41 0 0 0 3.41 3.409a3.41 3.41 0 0 0 3.41-3.41a3.41 3.41 0 0 0-3.41-3.41zm2.027 7.866a4.9 4.9 0 0 1-2.915.358a11.1 11.1 0 0 0 7.991 6.698a11.2 11.2 0 0 0 2.422.249a4.88 4.88 0 0 1-.999-2.85a9 9 0 0 1-.836-.136a8.3 8.3 0 0 1-5.663-4.32zm11.405.928a3.41 3.41 0 0 0-3.41 3.41a3.41 3.41 0 0 0 3.41 3.41a3.41 3.41 0 0 0 3.41-3.41a3.41 3.41 0 0 0-3.41-3.41"/>
</symbol><symbol id="unity" viewBox="0 0 24 24">
    <path fill="#ffffff" d="m12.929 4.294l3.8 2.193c.136.077.141.29 0 .367l-4.515 2.608a.42.42 0 0 1-.425 0L7.274 6.854c-.139-.074-.141-.293 0-.367l3.797-2.193V0L1.376 5.598v11.195l3.718-2.146v-4.385c-.003-.157.18-.269.317-.184l4.515 2.607a.43.43 0 0 1 .214.368v5.213c.002.156-.181.268-.318.184l-3.8-2.193l-3.717 2.145L12 24l9.695-5.598l-3.717-2.145l-3.8 2.192c-.134.082-.323-.024-.318-.183v-5.213c0-.156.087-.296.214-.368l4.515-2.607c.134-.082.322.022.318.184v4.385l3.717 2.146V5.598L12.93 0Z"/>
</symbol><symbol id="unreal" viewBox="0 0 24 24">
    <path fill="#ffffff" d="M12 0a12 12 0 1 0 12 12A12 12 0 0 0 12 0m0 23.52A11.52 11.52 0 1 1 23.52 12A11.52 11.52 0 0 1 12 23.52m7.13-9.791c-.206.997-1.126 3.557-4.06 4.942l-1.179-1.325l-1.988 2a7.34 7.34 0 0 1-5.804-2.978a3 3 0 0 0 .65.123c.326.006.678-.114.678-.66v-5.394a.89.89 0 0 0-1.116-.89c-.92.212-1.656 2.509-1.656 2.509a7.3 7.3 0 0 1 2.528-5.597a7.4 7.4 0 0 1 3.73-1.721c-1.006.573-1.57 1.507-1.57 2.29c0 1.262.76 1.109.984.923v7.28a1.2 1.2 0 0 0 .148.256a1.08 1.08 0 0 0 .88.445c.76 0 1.747-.868 1.747-.868V9.172c0-.6-.452-1.324-.905-1.572c0 0 .838-.149 1.484.346a6 6 0 0 1 .387-.425c1.508-1.48 2.929-1.902 4.112-2.112c0 0-2.151 1.69-2.151 3.96c0 1.687.043 5.801.043 5.801c.799.771 1.986-.342 3.059-1.441Z"/>
</symbol><symbol id="upload" viewBox="0 0 24 24">
    <g fill="none" stroke="#ffffff" stroke-linecap="round" stroke-linejoin="round" stroke-width="2">
        <path d="m16 6l-4-4l-4 4m4-4v8"/>
        <rect width="20" height="8" x="2" y="14" rx="2"/>
        <path d="M6 18h.01M10 18h.01"/>
    </g>
</symbol><symbol id="windows" viewBox="0 0 24 24">
    <path fill="#ffffff" d="M3 12V6.75l6-1.32v6.48zm17-9v8.75l-10 .15V5.21zM3 13l6 .09v6.81l-6-1.15zm17 .25V22l-10-1.91V13.1z"/>
</symbol><symbol id="xbox" viewBox="0 0 24 24">
    <path fill="#ffffff" d="M4.102 21.033A11.95 11.95 0 0 0 12 24a11.96 11.96 0 0 0 7.902-2.967c1.877-1.912-4.316-8.709-7.902-11.417c-3.582 2.708-9.779 9.505-7.898 11.417m11.16-14.406c2.5 2.961 7.484 10.313 6.076 12.912A11.94 11.94 0 0 0 24 12.004a11.95 11.95 0 0 0-3.57-8.536s-.027-.022-.082-.042a.8.8 0 0 0-.281-.045c-.592 0-1.985.434-4.805 3.246M3.654 3.426c-.057.02-.082.041-.086.042A11.96 11.96 0 0 0 0 12.004c0 2.854.998 5.473 2.661 7.533c-1.401-2.605 3.579-9.951 6.08-12.91c-2.82-2.813-4.216-3.245-4.806-3.245a.7.7 0 0 0-.281.046zM12 3.551S9.055 1.828 6.755 1.746c-.903-.033-1.454.295-1.521.339C7.379.646 9.659 0 11.984 0H12c2.334 0 4.605.646 6.766 2.085c-.068-.046-.615-.372-1.52-.339C14.946 1.828 12 3.545 12 3.545z"/>
</symbol></svg>